<?xml version="1.0" standalone="no"?>
<!DOCTYPE svg PUBLIC "-//W3C//DTD SVG 20010904//EN"
 "http://www.w3.org/TR/2001/REC-SVG-20010904/DTD/svg10.dtd">
<svg version="1.0" xmlns="http://www.w3.org/2000/svg"
 width="640.000000pt" height="640.000000pt" viewBox="0 0 640.000000 640.000000"
 preserveAspectRatio="xMidYMid meet">
<metadata>
Created by potrace 1.16, written by Peter Selinger 2001-2019
</metadata>
<g transform="translate(0.000000,640.000000) scale(0.100000,-0.100000)"
fill="#000000" stroke="none">
<path d="M3518 4291 c-82 -27 -136 -61 -196 -125 -100 -105 -146 -250 -123
-388 37 -226 223 -388 445 -388 408 0 608 495 319 788 -34 34 -79 65 -128 89
-67 31 -88 36 -168 40 -71 2 -105 -1 -149 -16z m233 -234 c124 -66 161 -232
78 -346 -36 -50 -67 -71 -131 -87 -213 -56 -366 209 -221 383 60 72 188 95
274 50z"/>
<path d="M2464 4286 c-3 -8 -4 -166 -2 -353 l3 -338 27 -55 c51 -103 112 -130
316 -137 l142 -6 0 112 0 111 -109 0 c-92 0 -112 3 -132 19 l-24 19 -3 304
c-1 166 -2 311 -2 321 0 15 -12 17 -105 17 -82 0 -107 -3 -111 -14z"/>
<path d="M2040 2715 l0 -585 1160 0 1160 0 0 585 0 585 -1160 0 -1160 0 0
-585z m732 450 c37 -7 89 -23 115 -35 60 -26 143 -82 143 -95 0 -6 -34 -44
-75 -85 l-74 -74 -23 21 c-42 39 -108 63 -178 63 -145 0 -232 -90 -233 -240
-2 -215 224 -328 371 -187 19 18 40 44 48 60 l15 27 -111 0 -110 0 0 100 0
100 230 0 230 0 0 -78 c0 -251 -156 -446 -386 -482 -298 -46 -563 222 -516
523 29 189 170 342 352 383 74 17 122 16 202 -1z m1050 4 c186 -40 331 -196
360 -386 46 -298 -213 -565 -507 -524 -266 38 -447 308 -380 566 25 93 54 145
125 216 114 115 254 159 402 128z"/>
<path d="M3645 2931 c-152 -70 -185 -271 -63 -388 143 -138 379 -30 378 173 0
74 -24 127 -78 176 -65 59 -160 75 -237 39z"/>
</g>
</svg>
